<svg width="121" height="120" viewBox="0 0 121 120" fill="none" xmlns="http://www.w3.org/2000/svg">
<circle cx="60.5" cy="60" r="60" fill="url(#paint0_linear)"/>
<path d="M76.3333 50.6667H73.6667V45.3333C73.6667 37.9733 67.6933 32 60.3333 32C52.9733 32 47 37.9733 47 45.3333V50.6667H44.3333C41.4 50.6667 39 53.0667 39 56V82.6667C39 85.6 41.4 88 44.3333 88H76.3333C79.2667 88 81.6667 85.6 81.6667 82.6667V56C81.6667 53.0667 79.2667 50.6667 76.3333 50.6667ZM52.3333 45.3333C52.3333 40.9067 55.9067 37.3333 60.3333 37.3333C64.76 37.3333 68.3333 40.9067 68.3333 45.3333V50.6667H52.3333V45.3333ZM76.3333 82.6667H44.3333V56H76.3333V82.6667ZM60.3333 74.6667C63.2667 74.6667 65.6667 72.2667 65.6667 69.3333C65.6667 66.4 63.2667 64 60.3333 64C57.4 64 55 66.4 55 69.3333C55 72.2667 57.4 74.6667 60.3333 74.6667Z" fill="white"/>
<defs>
<linearGradient id="paint0_linear" x1="2.59677" y1="4.19101e-05" x2="123.622" y2="5.1194" gradientUnits="userSpaceOnUse">
<stop stop-color="#4424BF"/>
<stop offset="1" stop-color="#8236DA"/>
</linearGradient>
</defs>
</svg>
