<svg width="121" height="120" viewBox="0 0 121 120" fill="none" xmlns="http://www.w3.org/2000/svg">
<circle cx="60.5" cy="60" r="60" fill="url(#paint0_linear)"/>
<path d="M71.235 38.635C70.885 39.825 70.5 41.225 70.5 43.92L80.58 54H82.75V63.8L75.925 65.305L71.76 80.25H65.25V75H49.5V80.25H42.955C40.715 72.41 37.25 59.11 37.25 54C37.25 48.225 41.975 43.5 47.75 43.5H64.9C66.055 41.505 68.155 39.475 71.235 38.635ZM74 33C66.405 33 62.275 38.25 62.275 38.25H47.75C39.175 38.25 32 45.145 32 54C32 62.155 39 85.5 39 85.5H54.75V80.25H60V85.5H75.75L80.125 69.75L88 68V48.75H82.75L75.75 41.75C75.75 40.49 77.5 38.32 77.5 36.5C77.5 34.575 75.925 33 74 33ZM63.5 52.25H49.5V47H63.5V52.25ZM71.375 57.5C69.94 57.5 68.75 56.31 68.75 54.875C68.75 53.44 69.94 52.25 71.375 52.25C72.81 52.25 74 53.44 74 54.875C74 56.31 72.81 57.5 71.375 57.5Z" fill="white"/>
<defs>
<linearGradient id="paint0_linear" x1="2.59677" y1="4.19101e-05" x2="123.622" y2="5.1194" gradientUnits="userSpaceOnUse">
<stop stop-color="#4424BF"/>
<stop offset="1" stop-color="#8236DA"/>
</linearGradient>
</defs>
</svg>
