<svg width="120" height="120" viewBox="0 0 120 120" fill="none" xmlns="http://www.w3.org/2000/svg">
<circle cx="60" cy="60" r="60" fill="url(#paint0_linear)"/>
<path d="M60.4091 33L37.5 43.1818V58.4545C37.5 72.5818 47.2745 85.7927 60.4091 89C73.5436 85.7927 83.3182 72.5818 83.3182 58.4545V43.1818L60.4091 33ZM78.2273 58.4545C78.2273 69.96 70.6418 80.5745 60.4091 83.7309C50.1764 80.5745 42.5909 69.96 42.5909 58.4545V46.4909L60.4091 38.5745L78.2273 46.4909V58.4545ZM48.7255 59.9564L45.1364 63.5455L55.3182 73.7273L75.6818 53.3636L72.0927 49.7491L55.3182 66.5236L48.7255 59.9564Z" fill="white"/>
<defs>
<linearGradient id="paint0_linear" x1="2.09677" y1="4.19101e-05" x2="123.122" y2="5.1194" gradientUnits="userSpaceOnUse">
<stop stop-color="#4424BF"/>
<stop offset="1" stop-color="#8236DA"/>
</linearGradient>
</defs>
</svg>
